<?xml version="1.0" standalone="no"?>
<!DOCTYPE svg PUBLIC "-//W3C//DTD SVG 20010904//EN"
 "http://www.w3.org/TR/2001/REC-SVG-20010904/DTD/svg10.dtd">
<svg version="1.0" xmlns="http://www.w3.org/2000/svg"
 width="128.000000pt" height="128.000000pt" viewBox="0 0 128.000000 128.000000"
 preserveAspectRatio="xMidYMid meet">
<metadata>
Created by potrace 1.11, written by Peter Selinger 2001-2013
</metadata>
<g transform="translate(0.000000,128.000000) scale(0.100000,-0.100000)"
fill="#000000" stroke="none">
<path d="M1101 1258 c-14 -23 -14 -23 8 -4 22 20 25 26 13 26 -4 0 -13 -10
-21 -22z"/>
<path d="M1150 1255 c-13 -14 -20 -25 -16 -25 5 0 3 -7 -4 -15 -19 -23 -3 -18
38 12 53 38 60 45 38 37 -10 -4 -21 -2 -25 5 -5 8 -15 3 -31 -14z"/>
<path d="M1050 1205 c-13 -14 -19 -25 -13 -25 5 0 20 11 33 25 13 14 19 25 13
25 -5 0 -20 -11 -33 -25z"/>
<path d="M1236 1222 c-10 -17 -15 -62 -5 -57 17 11 9 -28 -8 -41 -10 -7 -15
-16 -11 -20 5 -4 17 1 27 10 11 10 25 15 30 11 7 -4 11 10 11 39 0 35 -4 46
-16 46 -8 0 -12 5 -9 10 3 6 2 10 -4 10 -5 0 -12 -4 -15 -8z"/>
<path d="M277 1190 c-21 -10 -51 -32 -66 -49 -16 -17 -35 -31 -43 -31 -8 0
-14 -14 -14 -40 -1 -22 2 -37 7 -34 5 3 9 -4 9 -16 0 -12 -4 -18 -10 -15 -17
11 -11 -31 8 -47 38 -34 59 -39 109 -27 98 24 163 82 163 145 0 37 -42 99 -80
119 -36 19 -36 18 -83 -5z m-22 -79 c-27 -16 -52 -27 -54 -26 -7 8 13 28 43
41 55 24 62 15 11 -15z m75 -1 c0 -5 -9 -10 -21 -10 -11 0 -17 5 -14 10 3 6
13 10 21 10 8 0 14 -4 14 -10z"/>
<path d="M966 1148 c-9 -12 -16 -28 -16 -35 0 -16 22 -17 38 -1 16 16 16 42 0
32 -8 -5 -9 -2 -5 9 9 24 1 21 -17 -5z"/>
<path d="M1227 1066 c-3 -8 -2 -18 3 -21 13 -8 24 15 12 27 -6 6 -11 4 -15 -6z"/>
<path d="M945 980 c-27 -11 -70 -37 -94 -58 -61 -53 -61 -89 0 -142 98 -85
255 -106 325 -42 10 10 38 23 62 30 32 10 42 17 38 28 -3 9 -6 18 -6 20 0 2
-6 4 -14 4 -18 0 -76 66 -76 86 0 8 -7 17 -15 20 -8 4 -15 12 -15 20 0 8 -9
14 -21 14 -14 0 -19 5 -16 14 12 31 -93 34 -168 6z m55 -69 c0 -12 -20 -25
-27 -18 -7 7 6 27 18 27 5 0 9 -4 9 -9z m115 -71 c-3 -5 -12 -10 -18 -10 -7 0
-6 4 3 10 19 12 23 12 15 0z"/>
<path d="M460 750 c0 -13 7 -20 19 -20 28 0 35 17 12 29 -27 15 -31 14 -31 -9z"/>
<path d="M314 555 c-39 -16 -90 -68 -114 -116 -35 -67 -22 -124 30 -131 20 -2
25 -9 25 -33 1 -28 48 -105 64 -105 14 0 80 26 92 37 27 22 54 20 57 -5 2 -12
7 -20 11 -18 4 3 38 6 75 7 72 2 72 2 78 74 3 27 0 30 -29 33 -26 3 -36 -3
-54 -28 -13 -16 -33 -37 -46 -45 -22 -15 -22 -14 -13 11 6 14 15 35 21 46 11
20 10 20 -12 4 -52 -36 -54 0 -2 42 l36 29 -22 37 c-12 20 -27 36 -32 36 -5 0
-9 5 -9 11 0 12 -35 59 -72 96 -28 28 -49 33 -84 18z"/>
<path d="M1120 481 c0 -23 5 -30 24 -33 16 -3 27 0 30 9 9 21 9 21 -24 38
l-30 16 0 -30z"/>
<path d="M1190 503 c0 -4 5 -15 10 -23 7 -11 12 -12 21 -3 8 8 6 14 -10 22
-12 7 -21 8 -21 4z"/>
<path d="M1186 254 c-9 -33 19 -70 38 -51 10 8 10 20 3 44 -12 40 -32 43 -41
7z"/>
<path d="M651 239 c-23 -66 -11 -83 39 -54 19 11 21 14 8 15 -21 0 -24 16 -5
23 9 3 9 9 1 23 -17 29 -31 27 -43 -7z"/>
<path d="M1236 185 c4 -8 12 -15 20 -15 8 0 14 7 14 15 0 8 -9 15 -20 15 -13
0 -18 -5 -14 -15z"/>
</g>
</svg>
