<?xml version="1.0" standalone="no"?>
<!DOCTYPE svg PUBLIC "-//W3C//DTD SVG 20010904//EN"
 "http://www.w3.org/TR/2001/REC-SVG-20010904/DTD/svg10.dtd">
<svg version="1.0" xmlns="http://www.w3.org/2000/svg"
 width="120.000000pt" height="120.000000pt" viewBox="0 0 120.000000 120.000000"
 preserveAspectRatio="xMidYMid meet">
<g transform="translate(0.000000,120.000000) scale(0.100000,-0.100000)"
fill="#000000" stroke="none">
<path d="M550 1044 c-14 -7 -59 -17 -100 -23 -69 -11 -176 -51 -216 -83 -133
-102 -223 -266 -192 -348 5 -14 12 -45 15 -70 3 -25 10 -53 15 -62 5 -10 6
-18 3 -18 -15 0 61 -126 96 -160 56 -54 137 -94 219 -106 19 -3 55 -9 78 -14
48 -8 259 -6 307 4 112 24 225 80 278 139 41 45 75 123 83 187 3 30 11 61 16
67 11 14 13 61 4 109 -40 217 -235 355 -518 366 -21 1 -38 5 -38 9 0 14 -25
16 -50 3z m147 -365 c29 -9 33 -13 20 -21 -47 -26 -227 -25 -227 1 0 26 146
41 207 20z"/>
</g>
</svg>
